<svg version="1.1" xmlns="http://www.w3.org/2000/svg" xmlns:xlink="http://www.w3.org/1999/xlink" width="73.62335" height="190.05906" viewBox="0,0,73.62335,190.05906"><defs><linearGradient x1="255.18342" y1="205.95748" x2="255.82365" y2="214.61661" gradientUnits="userSpaceOnUse" id="color-1"><stop offset="0" stop-color="#060606"/><stop offset="1" stop-color="#070707"/></linearGradient><linearGradient x1="227.85651" y1="203.9108" x2="226.75331" y2="212.52321" gradientUnits="userSpaceOnUse" id="color-2"><stop offset="0" stop-color="#060606"/><stop offset="1" stop-color="#070707"/></linearGradient><linearGradient x1="225.49487" y1="179.71312" x2="224.69742" y2="183.70082" gradientUnits="userSpaceOnUse" id="color-3"><stop offset="0" stop-color="#060606"/><stop offset="1" stop-color="#070707"/></linearGradient><linearGradient x1="223.40344" y1="182.44043" x2="222.67135" y2="186.10126" gradientUnits="userSpaceOnUse" id="color-4"><stop offset="0" stop-color="#060606"/><stop offset="1" stop-color="#070707"/></linearGradient><linearGradient x1="221.73651" y1="184.82653" x2="220.79526" y2="189.53335" gradientUnits="userSpaceOnUse" id="color-5"><stop offset="0" stop-color="#060606"/><stop offset="1" stop-color="#070707"/></linearGradient><linearGradient x1="220.18724" y1="186.96425" x2="219.03683" y2="192.717" gradientUnits="userSpaceOnUse" id="color-6"><stop offset="0" stop-color="#060606"/><stop offset="1" stop-color="#070707"/></linearGradient><linearGradient x1="217.47443" y1="191.86067" x2="216.78156" y2="195.3254" gradientUnits="userSpaceOnUse" id="color-7"><stop offset="0" stop-color="#060606"/><stop offset="1" stop-color="#070707"/></linearGradient><linearGradient x1="215.74865" y1="194.03107" x2="214.89892" y2="198.28028" gradientUnits="userSpaceOnUse" id="color-8"><stop offset="0" stop-color="#060606"/><stop offset="1" stop-color="#070707"/></linearGradient><linearGradient x1="213.45381" y1="196.83552" x2="211.17797" y2="208.21618" gradientUnits="userSpaceOnUse" id="color-9"><stop offset="0" stop-color="#060606"/><stop offset="1" stop-color="#070707"/></linearGradient><linearGradient x1="231.59541" y1="165.78979" x2="221.86205" y2="214.46274" gradientUnits="userSpaceOnUse" id="color-10"><stop offset="0" stop-color="#000000"/><stop offset="1" stop-color="#030303"/></linearGradient><linearGradient x1="231.59541" y1="165.78979" x2="221.86205" y2="214.46274" gradientUnits="userSpaceOnUse" id="color-11"><stop offset="0" stop-color="#050505"/><stop offset="1" stop-color="#080808"/></linearGradient><linearGradient x1="224.13474" y1="180.76989" x2="225.62281" y2="180.95857" gradientUnits="userSpaceOnUse" id="color-12"><stop offset="0" stop-color="#060606"/><stop offset="1" stop-color="#070707"/></linearGradient><linearGradient x1="224.99736" y1="179.26645" x2="226.48546" y2="179.45513" gradientUnits="userSpaceOnUse" id="color-13"><stop offset="0" stop-color="#060606"/><stop offset="1" stop-color="#070707"/></linearGradient><linearGradient x1="225.89292" y1="177.60994" x2="228.08613" y2="177.88605" gradientUnits="userSpaceOnUse" id="color-14"><stop offset="0" stop-color="#060606"/><stop offset="1" stop-color="#070707"/></linearGradient><linearGradient x1="226.99761" y1="175.99846" x2="229.24303" y2="176.28115" gradientUnits="userSpaceOnUse" id="color-15"><stop offset="0" stop-color="#060606"/><stop offset="1" stop-color="#070707"/></linearGradient><linearGradient x1="228.099" y1="174.41309" x2="230.5533" y2="174.72207" gradientUnits="userSpaceOnUse" id="color-16"><stop offset="0" stop-color="#060606"/><stop offset="1" stop-color="#070707"/></linearGradient><linearGradient x1="229.01744" y1="173.01688" x2="231.52397" y2="173.33246" gradientUnits="userSpaceOnUse" id="color-17"><stop offset="0" stop-color="#060606"/><stop offset="1" stop-color="#070707"/></linearGradient><linearGradient x1="230.20684" y1="171.57521" x2="232.03451" y2="171.80531" gradientUnits="userSpaceOnUse" id="color-18"><stop offset="0" stop-color="#060606"/><stop offset="1" stop-color="#070707"/></linearGradient><linearGradient x1="231.09827" y1="170.94667" x2="232.58653" y2="171.13403" gradientUnits="userSpaceOnUse" id="color-19"><stop offset="0" stop-color="#060606"/><stop offset="1" stop-color="#070707"/></linearGradient><linearGradient x1="256.12322" y1="180.33181" x2="256.99071" y2="184.30487" gradientUnits="userSpaceOnUse" id="color-20"><stop offset="0" stop-color="#060606"/><stop offset="1" stop-color="#070707"/></linearGradient><linearGradient x1="258.26231" y1="183.02191" x2="259.0587" y2="186.66929" gradientUnits="userSpaceOnUse" id="color-21"><stop offset="0" stop-color="#060606"/><stop offset="1" stop-color="#070707"/></linearGradient><linearGradient x1="259.97096" y1="185.3783" x2="260.99487" y2="190.06783" gradientUnits="userSpaceOnUse" id="color-22"><stop offset="0" stop-color="#060606"/><stop offset="1" stop-color="#070707"/></linearGradient><linearGradient x1="261.55761" y1="187.48844" x2="262.80906" y2="193.22006" gradientUnits="userSpaceOnUse" id="color-23"><stop offset="0" stop-color="#060606"/><stop offset="1" stop-color="#070707"/></linearGradient><linearGradient x1="264.35616" y1="192.33636" x2="265.10989" y2="195.78837" gradientUnits="userSpaceOnUse" id="color-24"><stop offset="0" stop-color="#060606"/><stop offset="1" stop-color="#070707"/></linearGradient><linearGradient x1="266.11985" y1="194.47604" x2="267.04424" y2="198.70965" gradientUnits="userSpaceOnUse" id="color-25"><stop offset="0" stop-color="#060606"/><stop offset="1" stop-color="#070707"/></linearGradient><linearGradient x1="268.46369" y1="197.23968" x2="270.93944" y2="208.57853" gradientUnits="userSpaceOnUse" id="color-26"><stop offset="0" stop-color="#060606"/><stop offset="1" stop-color="#070707"/></linearGradient><linearGradient x1="249.77864" y1="166.51798" x2="260.36692" y2="215.01214" gradientUnits="userSpaceOnUse" id="color-27"><stop offset="0" stop-color="#000000"/><stop offset="1" stop-color="#030303"/></linearGradient><linearGradient x1="249.77864" y1="166.51798" x2="260.36692" y2="215.01214" gradientUnits="userSpaceOnUse" id="color-28"><stop offset="0" stop-color="#050505"/><stop offset="1" stop-color="#080808"/></linearGradient><linearGradient x1="257.50174" y1="181.36448" x2="256.0172" y2="181.57932" gradientUnits="userSpaceOnUse" id="color-29"><stop offset="0" stop-color="#060606"/><stop offset="1" stop-color="#070707"/></linearGradient><linearGradient x1="256.61278" y1="179.87646" x2="255.12825" y2="180.09129" gradientUnits="userSpaceOnUse" id="color-30"><stop offset="0" stop-color="#060606"/><stop offset="1" stop-color="#070707"/></linearGradient><linearGradient x1="255.68823" y1="178.23596" x2="253.50022" y2="178.55063" gradientUnits="userSpaceOnUse" id="color-31"><stop offset="0" stop-color="#060606"/><stop offset="1" stop-color="#070707"/></linearGradient><linearGradient x1="254.55536" y1="176.64418" x2="252.31525" y2="176.96633" gradientUnits="userSpaceOnUse" id="color-32"><stop offset="0" stop-color="#060606"/><stop offset="1" stop-color="#070707"/></linearGradient><linearGradient x1="253.42624" y1="175.07843" x2="250.97776" y2="175.43055" gradientUnits="userSpaceOnUse" id="color-33"><stop offset="0" stop-color="#060606"/><stop offset="1" stop-color="#070707"/></linearGradient><linearGradient x1="252.48337" y1="173.6986" x2="249.98279" y2="174.05823" gradientUnits="userSpaceOnUse" id="color-34"><stop offset="0" stop-color="#060606"/><stop offset="1" stop-color="#070707"/></linearGradient><linearGradient x1="251.26879" y1="172.27808" x2="249.44544" y2="172.5403" gradientUnits="userSpaceOnUse" id="color-35"><stop offset="0" stop-color="#060606"/><stop offset="1" stop-color="#070707"/></linearGradient><linearGradient x1="250.36642" y1="171.66532" x2="248.8817" y2="171.87885" gradientUnits="userSpaceOnUse" id="color-36"><stop offset="0" stop-color="#060606"/><stop offset="1" stop-color="#070707"/></linearGradient><linearGradient x1="253.26721" y1="229.97263" x2="255.76151" y2="264.49287" gradientUnits="userSpaceOnUse" id="color-37"><stop offset="0" stop-color="#080808"/><stop offset="1" stop-color="#0e0e0e"/></linearGradient><linearGradient x1="253.26721" y1="229.97263" x2="255.76151" y2="264.49287" gradientUnits="userSpaceOnUse" id="color-38"><stop offset="0" stop-color="#0e0e0e"/><stop offset="1" stop-color="#111111"/></linearGradient><linearGradient x1="223.25146" y1="232.18954" x2="228.03502" y2="265.23483" gradientUnits="userSpaceOnUse" id="color-39"><stop offset="0" stop-color="#080808"/><stop offset="1" stop-color="#0e0e0e"/></linearGradient><linearGradient x1="223.25146" y1="232.18954" x2="228.03502" y2="265.23483" gradientUnits="userSpaceOnUse" id="color-40"><stop offset="0" stop-color="#0e0e0e"/><stop offset="1" stop-color="#111111"/></linearGradient><linearGradient x1="226.66036" y1="85.18423" x2="228.36724" y2="112.13692" gradientUnits="userSpaceOnUse" id="color-41"><stop offset="0" stop-color="#2e2e2e"/><stop offset="1" stop-color="#000000"/></linearGradient><linearGradient x1="226.66036" y1="85.18423" x2="228.36724" y2="112.13692" gradientUnits="userSpaceOnUse" id="color-42"><stop offset="0" stop-color="#ffffff"/><stop offset="1" stop-color="#181818"/></linearGradient><linearGradient x1="228.01041" y1="108.5809" x2="228.22377" y2="111.95" gradientUnits="userSpaceOnUse" id="color-43"><stop offset="0" stop-color="#2e2e2e"/><stop offset="1" stop-color="#000000"/></linearGradient><linearGradient x1="228.01041" y1="108.5809" x2="228.22377" y2="111.95" gradientUnits="userSpaceOnUse" id="color-44"><stop offset="0" stop-color="#ffffff"/><stop offset="1" stop-color="#181818"/></linearGradient><linearGradient x1="252.01923" y1="85.34749" x2="253.78294" y2="113.19754" gradientUnits="userSpaceOnUse" id="color-45"><stop offset="0" stop-color="#2e2e2e"/><stop offset="1" stop-color="#000000"/></linearGradient><linearGradient x1="252.01923" y1="85.34749" x2="253.78294" y2="113.19754" gradientUnits="userSpaceOnUse" id="color-46"><stop offset="0" stop-color="#ffffff"/><stop offset="1" stop-color="#181818"/></linearGradient><linearGradient x1="253.30728" y1="108.75941" x2="253.52773" y2="112.24065" gradientUnits="userSpaceOnUse" id="color-47"><stop offset="0" stop-color="#2e2e2e"/><stop offset="1" stop-color="#000000"/></linearGradient><linearGradient x1="253.30728" y1="108.75941" x2="253.52773" y2="112.24065" gradientUnits="userSpaceOnUse" id="color-48"><stop offset="0" stop-color="#ffffff"/><stop offset="1" stop-color="#181818"/></linearGradient><linearGradient x1="236.81163" y1="165.99874" x2="241.23141" y2="225.77578" gradientUnits="userSpaceOnUse" id="color-49"><stop offset="0" stop-color="#030303"/><stop offset="1" stop-color="#0a0a0a"/></linearGradient><linearGradient x1="236.81736" y1="100.12842" x2="241.83561" y2="176.95261" gradientUnits="userSpaceOnUse" id="color-50"><stop offset="0" stop-color="#161616"/><stop offset="1" stop-color="#040404"/></linearGradient></defs><g transform="translate(-204.40506,-75.14501)"><g data-paper-data="{&quot;isPaintingLayer&quot;:true}" fill-rule="nonzero" stroke-linejoin="miter" stroke-miterlimit="10" stroke-dasharray="" stroke-dashoffset="0" style="mix-blend-mode: normal"><path d="M262.28085,112.14128c5.93536,6.7296 9.1992,12.96064 9.96928,21.27887c1.32166,14.27636 -16.04228,29.57269 -20.67466,30.26246c-0.1475,0.02196 -23.09186,1.08769 -24.32005,-0.36244c-8.18357,-9.66234 -15.19401,-10.5202 -17.01758,-25.16156c-1.20812,-19.07697 9.46786,-35.06426 28.54484,-36.27237c11.73681,-0.74326 17.56283,3.52543 23.49819,10.25503z" data-paper-data="{&quot;index&quot;:null}" fill="#000000" stroke="#0e0e0e" stroke-width="5" stroke-linecap="butt"/><path d="M256.50466,213.88162c0,0 -0.60691,1.01342 -0.68711,0.65244c-0.08021,-0.36098 -0.01426,-3.8093 -0.01426,-3.8093c0,0 -0.66382,0.87183 -0.76343,0.52438c-0.09961,-0.34744 -0.5878,-5.23758 -0.5878,-5.23758" data-paper-data="{&quot;index&quot;:null}" fill="none" stroke="url(#color-1)" stroke-width="1.5" stroke-linecap="round"/><path d="M228.5839,204.00398c0,0 -0.74946,4.85695 -0.86754,5.19855c-0.11808,0.34161 -0.73424,-0.56454 -0.73424,-0.56454c0,0 -0.11889,3.44692 -0.21832,3.80308c-0.09941,0.35618 -0.65117,-0.68832 -0.65117,-0.68832" data-paper-data="{&quot;index&quot;:null}" fill="none" stroke="url(#color-2)" stroke-width="1.5" stroke-linecap="round"/><g data-paper-data="{&quot;index&quot;:null}"><path d="M222.22065,183.41256l5.10465,-3.33341" data-paper-data="{&quot;index&quot;:null}" fill="none" stroke="url(#color-3)" stroke-width="1.5" stroke-linecap="round"/><path d="M225.10312,182.78031l-4.13145,2.98105" data-paper-data="{&quot;index&quot;:null}" fill="none" stroke="url(#color-4)" stroke-width="1.5" stroke-linecap="round"/><path d="M219.19363,189.21307l4.1445,-4.06625" data-paper-data="{&quot;index&quot;:null}" fill="none" stroke="url(#color-5)" stroke-width="1.5" stroke-linecap="round"/><path d="M216.9889,192.31274l4.96339,-4.99554" data-paper-data="{&quot;index&quot;:null}" fill="none" stroke="url(#color-6)" stroke-width="1.5" stroke-linecap="round"/><path d="M219.01068,192.16788l-3.76537,2.85031" data-paper-data="{&quot;index&quot;:null}" fill="none" stroke="url(#color-7)" stroke-width="1.5" stroke-linecap="round"/><path d="M213.36267,197.97307l3.92223,-3.63479" data-paper-data="{&quot;index&quot;:null}" fill="none" stroke="url(#color-8)" stroke-width="1.5" stroke-linecap="round"/><path d="M209.96357,207.83125c0,0 -0.69537,0.03768 -0.74524,-0.01306c-0.03152,-0.03204 2.27487,-3.89622 2.27487,-3.89622c0,0 -0.68997,-0.1099 -0.60143,-0.05227c0.10647,0.06931 1.83036,-3.03331 1.83036,-3.03331c0,0 -0.81573,-0.28871 -0.86292,-0.10457c-0.04074,0.15893 3.55615,-3.50403 3.55615,-3.50403" data-paper-data="{&quot;index&quot;:null}" fill="none" stroke="url(#color-9)" stroke-width="1.5" stroke-linecap="round"/><path d="M218.35961,213.40817l-5.13787,-2.76241l23.33396,-43.12511l5.13789,2.7624z" data-paper-data="{&quot;index&quot;:null}" fill="#070707" stroke="#000000" stroke-width="2.5" stroke-linecap="butt"/><path d="M218.46609,219.70312l-10.5611,-5.69763l5.69764,-10.5611l10.56113,5.69766z" data-paper-data="{&quot;index&quot;:null}" fill="#979797" stroke="#ffffff" stroke-width="2.5" stroke-linecap="butt"/><path d="M243.82643,168.23568c0,0 -4.68657,11.82754 -9.50269,23.25531c-4.64423,11.01987 -11.43773,23.40929 -11.45237,23.4388c-0.11399,0.2297 -3.57642,-2.94117 -6.17158,-4.35652c-2.59517,-1.41533 -7.45754,-2.87947 -7.35643,-3.02133c0.06757,-0.09481 6.49889,-10.64472 13.81842,-21.6775c5.97616,-9.00788 12.92701,-17.88816 12.92701,-17.88816z" data-paper-data="{&quot;index&quot;:null}" fill="url(#color-10)" stroke="url(#color-11)" stroke-width="2.5" stroke-linecap="round"/><path d="M223.29805,181.49036l3.25655,-1.38806" data-paper-data="{&quot;index&quot;:null}" fill="none" stroke="url(#color-12)" stroke-width="1.5" stroke-linecap="round"/><path d="M226.5239,178.75441l-2.08704,1.03047" data-paper-data="{&quot;index&quot;:null}" fill="none" stroke="url(#color-13)" stroke-width="1.5" stroke-linecap="round"/><path d="M225.78444,178.47155l2.41017,-1.44712" fill="none" stroke="url(#color-14)" stroke-width="1.5" stroke-linecap="round"/><path d="M229.33835,175.52397l-2.43609,1.23166" fill="none" stroke="url(#color-15)" stroke-width="1.5" stroke-linecap="round"/><path d="M230.65192,173.9388l-2.65153,1.25759" fill="none" stroke="url(#color-16)" stroke-width="1.5" stroke-linecap="round"/><path d="M231.61272,172.62748l-2.68403,1.09436" fill="none" stroke="url(#color-17)" stroke-width="1.5" stroke-linecap="round"/><path d="M230.12466,172.22796l1.99204,-1.07538" fill="none" stroke="url(#color-18)" stroke-width="1.5" stroke-linecap="round"/><path d="M231.05269,171.4907l1.57943,-0.90068" fill="none" stroke="url(#color-19)" stroke-width="1.5" stroke-linecap="round"/></g><g data-paper-data="{&quot;index&quot;:null}"><path d="M254.29951,180.72998l5.16251,3.24308" data-paper-data="{&quot;index&quot;:null}" fill="none" stroke="url(#color-20)" stroke-width="1.5" stroke-linecap="round"/><path d="M260.75214,186.29953l-4.18325,-2.9079" data-paper-data="{&quot;index&quot;:null}" fill="none" stroke="url(#color-21)" stroke-width="1.5" stroke-linecap="round"/><path d="M258.37523,185.72672l4.21541,3.99269" data-paper-data="{&quot;index&quot;:null}" fill="none" stroke="url(#color-22)" stroke-width="1.5" stroke-linecap="round"/><path d="M264.84958,192.77981l-5.05052,-4.90743" data-paper-data="{&quot;index&quot;:null}" fill="none" stroke="url(#color-23)" stroke-width="1.5" stroke-linecap="round"/><path d="M262.82554,192.67056l3.81493,2.78361" data-paper-data="{&quot;index&quot;:null}" fill="none" stroke="url(#color-24)" stroke-width="1.5" stroke-linecap="round"/><path d="M268.57482,198.37547l-3.98559,-3.56522" data-paper-data="{&quot;index&quot;:null}" fill="none" stroke="url(#color-25)" stroke-width="1.5" stroke-linecap="round"/><path d="M266.50937,197.66641c0,0 3.66078,3.59911 3.61726,3.44091c-0.05041,-0.18328 -0.86094,0.11972 -0.86094,0.11972c0,0 1.7782,3.07181 1.88344,3.00065c0.08751,-0.05919 -0.60041,0.06284 -0.60041,0.06284c0,0 2.37401,3.82299 2.34306,3.85559c-0.04895,0.0516 -0.74489,0.02617 -0.74489,0.02617" data-paper-data="{&quot;index&quot;:null}" fill="none" stroke="url(#color-26)" stroke-width="1.5" stroke-linecap="round"/><path d="M239.76109,171.18824l5.08849,-2.85238l24.08917,42.70784l-5.08847,2.85239z" data-paper-data="{&quot;index&quot;:null}" fill="#070707" stroke="#000000" stroke-width="2.5" stroke-linecap="butt"/><path d="M257.97193,209.73279l10.45923,-5.88261l5.88259,10.4592l-10.45921,5.88258z" data-paper-data="{&quot;index&quot;:null}" fill="#979797" stroke="#ffffff" stroke-width="2.5" stroke-linecap="butt"/><path d="M245.32459,168.79322c0,0 7.10603,8.75659 13.23976,17.65793c7.51253,10.90228 14.12849,21.33738 14.19772,21.43099c0.1036,0.14005 -4.73225,1.68954 -7.30212,3.15031c-2.56985,1.46078 -5.97596,4.69209 -6.09398,4.46443c-0.01515,-0.02925 -7.0256,-12.2972 -11.86302,-23.23366c-5.01646,-11.34125 -9.91043,-23.08449 -9.91043,-23.08449z" data-paper-data="{&quot;index&quot;:null}" fill="url(#color-27)" stroke="url(#color-28)" stroke-width="2.5" stroke-linecap="round"/><path d="M258.35096,182.07012l-3.28047,-1.33054" data-paper-data="{&quot;index&quot;:null}" fill="none" stroke="url(#color-29)" stroke-width="1.5" stroke-linecap="round"/><path d="M255.07748,179.39134l2.10485,0.99359" data-paper-data="{&quot;index&quot;:null}" fill="none" stroke="url(#color-30)" stroke-width="1.5" stroke-linecap="round"/><path d="M255.81186,179.09554l-2.43526,-1.4045" fill="none" stroke="url(#color-31)" stroke-width="1.5" stroke-linecap="round"/><path d="M254.66401,177.39956l-2.45739,-1.18861" fill="none" stroke="url(#color-32)" stroke-width="1.5" stroke-linecap="round"/><path d="M250.86537,174.64912l2.67326,1.21074" fill="none" stroke="url(#color-33)" stroke-width="1.5" stroke-linecap="round"/><path d="M249.88164,173.35493l2.70288,1.04696" fill="none" stroke="url(#color-34)" stroke-width="1.5" stroke-linecap="round"/><path d="M251.36244,172.92928l-2.01065,-1.04016" fill="none" stroke="url(#color-35)" stroke-width="1.5" stroke-linecap="round"/><path d="M248.82655,171.33571l1.59503,0.87274" fill="none" stroke="url(#color-36)" stroke-width="1.5" stroke-linecap="round"/></g><path d="M227.59332,255.08007l6.37197,-53.06177l6.16616,0.36439l-6.37196,53.06178z" data-paper-data="{&quot;index&quot;:null}" fill="#000000" stroke="#070707" stroke-width="2.5" stroke-linecap="butt"/><path d="M216.71159,262.95367l0.21488,-8.46735l19.42504,0.05923l-0.21488,8.46734z" data-paper-data="{&quot;index&quot;:null}" fill="#000000" stroke="#070707" stroke-width="2.5" stroke-linecap="butt"/><path d="M248.86448,256.30294l-6.73295,-51.6155l6.12609,-0.78363l6.73294,51.61549z" data-paper-data="{&quot;index&quot;:null}" fill="#000000" stroke="#070707" stroke-width="2.5" stroke-linecap="butt"/><path d="M246.67835,263.01577l-0.2882,-8.46518l19.4238,-0.22744l0.2882,8.46518z" data-paper-data="{&quot;index&quot;:null}" fill="#000000" stroke="#070707" stroke-width="2.5" stroke-linecap="butt"/><path d="M252.92875,234.49135l2.55729,19.53304l10.31231,-0.48333l0.40264,10.1975l-20.50747,0.20279l0.22346,-9.56485l2.30508,-0.15519l-2.5263,-18.68187z" data-paper-data="{&quot;index&quot;:null}" fill="url(#color-37)" stroke="url(#color-38)" stroke-width="2.5" stroke-linecap="round"/><path d="M236.76779,236.0315l-2.3125,18.37299l2.3212,-0.05669l-0.18643,9.53283l-20.42838,0.0417l0.3897,-9.66382l10.47741,0.15286l2.23114,-18.76176z" data-paper-data="{&quot;index&quot;:null}" fill="url(#color-39)" stroke="url(#color-40)" stroke-width="2.5" stroke-linecap="round"/><path d="M255.07968,225.37289c0,0 -0.28125,0.73883 -1.852,0.97301c-1.47916,0.22052 -2.39645,-0.36217 -2.39645,-0.36217c0,0 -0.44818,1.18062 -2.45064,1.36853c-2.11756,0.1987 -3.04782,-0.75451 -3.04782,-0.75451c0,0 -1.09946,1.23379 -3.64132,1.22059c-3.1357,-0.01628 -3.80943,-1.50159 -3.80943,-1.50159c0,0 -1.79585,0.72769 -3.45991,0.47036c-1.81302,-0.28035 -3.19313,-1.6534 -3.19313,-1.6534c0,0 -0.95259,0.42266 -2.01583,0.2703c-1.37171,-0.19656 -1.73658,-1.21073 -1.73658,-1.21073" data-paper-data="{&quot;index&quot;:null}" fill="none" stroke="#ffffff" stroke-width="2.5" stroke-linecap="round"/><path d="M255.07699,215.78427l1.88569,1.57112" data-paper-data="{&quot;index&quot;:null}" fill="none" stroke="#090909" stroke-width="1.5" stroke-linecap="round"/><path d="M255.99142,217.7811l1.60104,1.71014" data-paper-data="{&quot;index&quot;:null}" fill="none" stroke="#090909" stroke-width="1.5" stroke-linecap="round"/><path d="M258.24825,221.97906l-1.29472,-1.55583" data-paper-data="{&quot;index&quot;:null}" fill="none" stroke="#090909" stroke-width="1.5" stroke-linecap="round"/><path d="M258.14684,223.77549l-0.8884,-1.64486" data-paper-data="{&quot;index&quot;:null}" fill="none" stroke="#090909" stroke-width="1.5" stroke-linecap="round"/><path d="M224.70713,215.08055l1.96007,-2.20937" data-paper-data="{&quot;index&quot;:null}" fill="none" stroke="#090909" stroke-width="1.5" stroke-linecap="round"/><path d="M224.78726,216.96211l1.03014,-2.02264" data-paper-data="{&quot;index&quot;:null}" fill="none" stroke="#090909" stroke-width="1.5" stroke-linecap="round"/><path d="M225.45014,217.85538l-2.35977,1.59009" data-paper-data="{&quot;index&quot;:null}" fill="none" stroke="#090909" stroke-width="1.5" stroke-linecap="round"/><path d="M223.27882,221.2212l1.64274,-2.20019" data-paper-data="{&quot;index&quot;:null}" fill="none" stroke="#090909" stroke-width="1.5" stroke-linecap="round"/><path d="M223.6486,222.98209l1.27139,-2.74829" data-paper-data="{&quot;index&quot;:null}" fill="none" stroke="#090909" stroke-width="1.5" stroke-linecap="round"/><path d="M220.94915,134.91436c0,0 -0.70436,0.73272 -1.07032,1.12949c-0.34654,0.37569 -1.07041,1.19136 -1.07041,1.19136c0,0 -0.47028,-2.17164 -0.50962,-3.47801c-0.03934,-1.30638 0.18627,-3.33219 0.18627,-3.33219l-1.62918,1.113c0,0 -0.25224,-2.50981 -0.11412,-4.04105c0.1381,-1.53123 0.81155,-3.69121 0.81155,-3.69121l-1.91494,0.52799c0,0 0.22643,-3.1459 1.2508,-5.73435c1.02437,-2.58845 3.41423,-5.33753 3.41423,-5.33753" data-paper-data="{&quot;index&quot;:null}" fill="#008080" stroke="#00ffff" stroke-width="3" stroke-linecap="round"/><path d="M262.10946,113.33917c0,0 2.46249,2.77185 3.50446,5.37001c1.04199,2.59816 1.24764,5.74608 1.24764,5.74608l-1.98915,-0.54631c0,0 0.68063,2.16634 0.80978,3.69882c0.12912,1.53247 -0.1576,4.03978 -0.1576,4.03978l-1.68597,-1.12857c0,0 0.21552,2.02787 0.16204,3.3338c-0.05348,1.30594 -0.56405,3.47297 -0.56405,3.47297c0,0 -0.74602,-0.82255 -1.10333,-1.20155c-0.37732,-0.40025 -1.10381,-1.13971 -1.10381,-1.13971" data-paper-data="{&quot;index&quot;:null}" fill="#008080" stroke="#00ffff" stroke-width="3" stroke-linecap="round"/><path d="M221.22591,112.58915l6.75167,-27.48835l7.51645,26.35469" data-paper-data="{&quot;index&quot;:null}" fill="url(#color-41)" stroke="url(#color-42)" stroke-width="2.5" stroke-linecap="round"/><path d="M227.3311,112.00653l0.84396,-3.43605l0.93955,3.29433" data-paper-data="{&quot;index&quot;:null}" fill="url(#color-43)" stroke="url(#color-44)" stroke-width="2.5" stroke-linecap="round"/><path d="M246.58606,111.48288l7.76355,-26.28297l6.4933,27.55053" data-paper-data="{&quot;index&quot;:null}" fill="url(#color-45)" stroke="url(#color-46)" stroke-width="2.5" stroke-linecap="round"/><path d="M252.62811,112.02631l0.97045,-3.28536l0.81168,3.44382" data-paper-data="{&quot;index&quot;:null}" fill="url(#color-47)" stroke="url(#color-48)" stroke-width="2.5" stroke-linecap="round"/><path d="M232.31894,114.4203c0,0 0.43969,-5.83098 4.17009,-8.71268c2.93562,-2.26775 7.72598,-3.07437 7.72598,-3.07437c0,0 -0.11193,1.62337 -0.42009,2.60658c-0.30814,0.98323 -1.33973,3.00852 -1.33973,3.00852c0,0 2.58221,-0.10793 4.10618,0.41315c1.52397,0.52108 4.12484,2.8007 4.12484,2.8007c0,0 -2.88645,0.30495 -4.45165,0.64429c-1.36435,0.29578 -4.74778,1.39947 -4.74778,1.39947" data-paper-data="{&quot;index&quot;:null}" fill="#008080" stroke="#00ffff" stroke-width="2.5" stroke-linecap="round"/><path d="M220.97596,153.23227c0,0 -6.93496,2.26116 -7.17586,1.93929c-0.3207,-0.42848 3.39417,-4.72361 3.25053,-5.28133c-0.11577,-0.44947 -5.36485,-1.64917 -5.63972,-2.68303c-0.19813,-0.74514 9.60739,-3.00188 9.60739,-3.00188l0.14628,-31.16215l40.18908,0.18865l-0.14488,30.86135c0,0 9.63391,1.85088 10.10508,2.99985c0.28616,0.69779 -6.08028,2.54308 -5.9412,3.2006c0.25804,1.21993 3.95866,4.70084 3.48127,5.42593c-0.70905,1.07696 -7.68894,-2.29866 -7.68894,-2.29866z" data-paper-data="{&quot;index&quot;:null}" fill="#008080" stroke="#00ffff" stroke-width="2.5" stroke-linecap="butt"/><path d="M254.8906,150.08519c0,0 7.09525,2.19838 9.57979,3.44883c1.9443,0.97856 4.10808,3.44018 4.10808,3.44018" data-paper-data="{&quot;index&quot;:null}" fill="none" stroke="#00ffff" stroke-width="2.5" stroke-linecap="round"/><path d="M271.51331,150.81719c0,0 -2.08018,-0.0906 -3.64831,-0.45942c-2.68113,-0.6306 -10.97744,-2.98056 -10.97744,-2.98056" data-paper-data="{&quot;index&quot;:null}" fill="none" stroke="#00ffff" stroke-width="2.5" stroke-linecap="round"/><path d="M274.55698,144.97132l-19.3377,-1.25076" data-paper-data="{&quot;index&quot;:null}" fill="none" stroke="#00ffff" stroke-width="2.5" stroke-linecap="round"/><path d="M217.35977,158.87754c0,0 0.10878,-2.94261 3.12697,-4.70081c3.01821,-1.7582 6.3408,-3.55662 6.3408,-3.55662" data-paper-data="{&quot;index&quot;:null}" fill="none" stroke="#00ffff" stroke-width="2.5" stroke-linecap="round"/><path d="M224.85612,147.78241c0,0 -5.8011,1.67332 -8.34763,2.3066c-2.03654,0.50645 -5.74634,1.19833 -5.74634,1.19833" data-paper-data="{&quot;index&quot;:null}" fill="none" stroke="#00ffff" stroke-width="2.5" stroke-linecap="round"/><path d="M226.41568,144.3955c0,0 -6.81361,0.74581 -9.94984,0.85733c-2.77099,0.09853 -7.90782,-0.22233 -7.90782,-0.22233" data-paper-data="{&quot;index&quot;:null}" fill="none" stroke="#00ffff" stroke-width="2.5" stroke-linecap="round"/><path d="M247.76965,166.18047c0,0 2.68479,26.8483 5.6233,43.89555c1.36466,7.91688 3.34916,13.6511 3.31406,13.6839c-0.16637,0.15548 -7.54078,1.97018 -15.17022,1.72612c-9.80919,-0.48881 -16.08642,-2.56977 -16.1471,-2.65867c-0.09694,-0.08085 2.92651,-10.68087 5.1992,-24.78329c2.25484,-13.99178 2.48443,-31.76893 2.48443,-31.76893z" data-paper-data="{&quot;index&quot;:null}" fill="#000000" stroke="url(#color-49)" stroke-width="2.5" stroke-linecap="butt"/><path d="M227.88575,158.97765c2.0333,-0.65479 23.2227,-1.78538 26.57862,0.15096c1.96447,2.26151 -0.3969,2.08628 -0.54112,3.28095c-0.1255,1.03963 1.40706,2.46789 0.69832,2.91391c-2.13896,1.34604 -23.27774,0.12068 -26.76775,0.49964c-1.90688,0.20705 -0.33046,-1.9668 0.003,-3.09131c0.48569,-1.6378 -2.348,-1.93957 -0.29833,-3.42989z" data-paper-data="{&quot;index&quot;:null}" fill="#00c0c0" stroke="#00ffff" stroke-width="2.5" stroke-linecap="round"/><path d="M245.5723,162.10333l-9.50485,0.124" data-paper-data="{&quot;index&quot;:null}" fill="none" stroke="#00ffff" stroke-width="2.5" stroke-linecap="round"/><path d="M255.27054,214.41333l1.04272,1.33852" data-paper-data="{&quot;index&quot;:null}" fill="none" stroke="#090909" stroke-width="1.5" stroke-linecap="round"/><path d="M246.50934,141.07781l0.09286,-18.61622" data-paper-data="{&quot;index&quot;:null}" fill="none" stroke="#00ffff" stroke-width="2.5" stroke-linecap="round"/><path d="M235.28733,141.11505l0.09285,-18.61622" data-paper-data="{&quot;index&quot;:null}" fill="none" stroke="#00ffff" stroke-width="2.5" stroke-linecap="round"/><path d="M250.20468,98.59616l4.12018,-15.91247l4.30032,20.55388z" data-paper-data="{&quot;index&quot;:null}" fill="#161616" stroke="#151515" stroke-width="3" stroke-linecap="round"/><path d="M223.92195,102.1044l4.10552,-19.85279l3.83653,17.0443z" data-paper-data="{&quot;index&quot;:null}" fill="#161616" stroke="#151515" stroke-width="3" stroke-linecap="round"/><path d="M245.1218,148.362c0,0 -0.55157,0.53905 -1.04913,0.63497c-0.49756,0.09591 -0.86835,-0.2494 -1.1873,-0.18791c-0.3631,0.07 -0.59138,0.66196 -1.11199,0.76232c-0.52061,0.10036 -1.22864,-0.31112 -1.22864,-0.31112" data-paper-data="{&quot;index&quot;:null}" fill="none" stroke="#00ffff" stroke-width="2" stroke-linecap="round"/><path d="M232.49775,169.30451c0,0 -19.4335,-5.60909 -24.63336,-25.74169c-3.14389,-12.17233 2.08716,-26.01828 6.35265,-31.19756c6.90883,-8.3889 16.33687,-11.05242 25.8785,-12.13626c6.17713,-0.70168 19.6302,3.09246 27.57189,13.19715c8.96854,11.41119 8.67219,19.15635 6.79556,29.93074c-3.13641,16.41631 -24.55381,26.08782 -24.55381,26.08782" data-paper-data="{&quot;index&quot;:null}" fill-opacity="0.20161" fill="#000000" stroke="url(#color-50)" stroke-width="5" stroke-linecap="round"/></g></g></svg>